<svg width="1183" height="1024" viewBox="0 0 1183 1024" fill="none" xmlns="http://www.w3.org/2000/svg">
<path d="M373.789 330.335C442.092 318.073 509.13 333.446 562.295 368.217C615.46 402.988 654.753 457.157 667.575 522.475C680.397 587.794 664.322 651.902 627.962 702.744C591.602 753.586 534.958 791.162 466.655 803.424C398.352 815.685 331.315 800.313 278.149 765.542C224.984 730.771 185.691 676.602 172.87 611.284C160.048 545.965 176.123 481.857 212.482 431.015C248.842 380.172 305.486 342.596 373.789 330.335Z" stroke="white" stroke-opacity="0.24" stroke-width="8" stroke-miterlimit="10"/>
<path opacity="0.94" d="M265.893 774.203C212.348 730.988 168.548 672.931 147.861 606.272C126.277 536.735 130.241 471.39 168.129 414.407C205.235 358.595 266.624 318.074 341.326 304.387C416.026 290.69 492.048 306.087 555.062 343.309C618.902 380.829 663.912 437.404 683.287 504.064C703.975 575.261 690.846 645.376 652.828 703.115C615.594 758.844 551.789 808.736 475.813 827.083C399.836 845.43 323.815 830.033 265.887 774.226L265.893 774.203Z" stroke="white" stroke-opacity="0.24" stroke-width="7" stroke-miterlimit="10"/>
<path opacity="0.88" d="M253.641 782.846C199.728 731.184 151.062 669.176 122.868 601.24C92.2245 527.389 84.4035 460.939 123.78 397.78C161.663 337.036 227.769 293.543 308.868 278.421C389.967 263.299 474.968 278.699 547.82 318.373C622.334 358.642 673.514 417.659 698.978 485.618C727.897 562.797 717.357 638.803 677.682 703.439C639.574 764.053 568.607 826.262 484.966 850.682C401.325 875.102 316.322 859.692 253.631 782.847L253.641 782.846Z" stroke="white" stroke-opacity="0.24" stroke-width="6" stroke-miterlimit="10"/>
<path opacity="0.81" d="M241.393 791.492C187.1 731.387 133.297 665.455 97.8683 596.214C57.8891 518.055 38.5722 450.502 79.4236 381.159C118.109 315.5 188.907 269.017 276.413 252.458C363.909 235.901 457.892 251.315 540.585 293.452C625.782 336.458 683.469 397.888 714.686 467.184C752.146 550.343 743.877 632.253 702.544 703.787C663.572 769.285 585.444 843.81 494.127 874.305C402.822 904.799 308.839 889.385 241.383 791.494L241.393 791.492Z" stroke="white" stroke-opacity="0.24" stroke-width="5" stroke-miterlimit="10"/>
<path opacity="0.75" d="M229.143 800.133C174.47 731.584 115.305 661.779 72.8761 591.181C23.3359 508.755 -7.21324 440.084 35.0859 364.53C74.5965 293.961 150.061 244.473 243.966 226.489C337.859 208.497 440.826 223.934 533.366 268.512C629.237 314.267 693.697 378.042 730.399 448.733C776.658 537.826 770.4 625.677 727.42 704.105C687.574 774.49 602.284 861.332 503.303 897.9C404.324 934.479 301.357 919.041 229.141 800.123L229.143 800.133Z" stroke="white" stroke-opacity="0.24" stroke-width="4" stroke-miterlimit="10"/>
<path opacity="0.69" d="M216.882 808.774C161.842 731.789 97.1616 658.171 47.874 586.147C-11.3867 499.547 -52.9957 429.673 -9.27021 347.912C31.0806 272.453 111.198 219.951 211.501 200.532C311.793 181.114 423.739 196.555 526.119 243.596C632.665 292.1 704.071 358.145 746.095 430.304C801.369 525.239 796.917 619.121 752.271 704.458C711.55 779.729 619.097 878.877 512.453 921.528C405.81 964.18 293.864 948.739 216.882 808.774Z" stroke="white" stroke-opacity="0.24" stroke-width="3" stroke-miterlimit="10"/>
<path opacity="0.62" d="M204.632 817.413C149.212 731.984 78.9121 654.646 22.8719 581.113C-46.2477 490.428 -98.7548 419.269 -53.6177 331.282C-12.4031 250.939 72.3447 195.417 179.044 174.562C285.733 153.709 406.663 169.173 518.88 218.657C636.098 269.9 714.595 338.158 761.788 411.854C826.256 512.524 823.422 612.556 777.127 704.778C735.531 784.935 635.928 896.397 521.609 945.124C407.3 993.849 286.362 978.397 204.628 817.393L204.632 817.413Z" stroke="white" stroke-opacity="0.24" stroke-width="2" stroke-miterlimit="10"/>
<path opacity="0.56" d="M192.382 826.063C136.583 732.19 60.5978 651.196 -2.11707 576.099C-81.1888 481.419 -144.49 408.882 -97.9628 314.673C-55.8718 229.454 33.4913 170.893 146.59 148.613C259.678 126.335 389.587 141.803 511.655 193.748C639.548 247.74 725.207 318.123 777.509 393.442C851.317 499.747 849.963 606.017 802.002 705.148C759.532 790.191 652.767 913.97 530.785 968.78C408.803 1023.59 278.892 1008.11 192.386 826.084L192.382 826.063Z" stroke="white" stroke-opacity="0.24" stroke-width="2" stroke-miterlimit="10"/>
<path opacity="0.5" d="M180.132 834.7C123.964 732.38 42.242 647.805 -27.108 571.061C-116.204 472.474 -190.212 398.49 -142.31 298.041C-99.3423 207.946 -5.36191 146.356 114.134 122.641C233.618 98.9278 372.52 114.407 504.416 168.807C642.983 225.548 735.881 297.99 793.202 374.99C876.463 486.825 876.468 599.45 826.858 705.466C783.524 795.393 669.587 931.491 539.94 992.374C410.294 1053.26 271.403 1037.78 180.132 834.7Z" stroke="white" stroke-opacity="0.24" stroke-miterlimit="10"/>
<g filter="url(#filter0_f_32_15)">
<circle cx="413" cy="524" r="278" fill="#67DBBC" fill-opacity="0.34"/>
</g>
<defs>
<filter id="filter0_f_32_15" x="-147.6" y="-36.6" width="1121.2" height="1121.2" filterUnits="userSpaceOnUse" color-interpolation-filters="sRGB">
<feFlood flood-opacity="0" result="BackgroundImageFix"/>
<feBlend mode="normal" in="SourceGraphic" in2="BackgroundImageFix" result="shape"/>
<feGaussianBlur stdDeviation="141.3" result="effect1_foregroundBlur_32_15"/>
</filter>
</defs>
</svg>
