<svg width="393" height="812" viewBox="0 0 393 812" fill="none" xmlns="http://www.w3.org/2000/svg">
<path d="M171.272 109.718C217.277 101.459 262.43 111.814 298.239 135.233C334.048 158.653 360.513 195.138 369.149 239.133C377.785 283.127 366.958 326.307 342.468 360.551C317.979 394.796 279.827 420.105 233.822 428.363C187.817 436.622 142.664 426.268 106.855 402.848C71.046 379.429 44.5806 342.944 35.9446 298.949C27.3085 254.954 38.1358 211.774 62.6255 177.53C87.1152 143.286 125.267 117.977 171.272 109.718Z" stroke="white" stroke-opacity="0.24" stroke-width="8" stroke-miterlimit="10"/>
<path opacity="0.94" d="M98.6 408.682C62.5353 379.575 33.0336 340.471 19.1006 295.574C4.56259 248.737 7.2325 204.724 32.7516 166.344C57.7444 128.753 99.0924 101.46 149.407 92.2415C199.721 83.0161 250.924 93.3863 293.367 118.457C336.366 143.728 366.682 181.834 379.732 226.732C393.666 274.686 384.823 321.912 359.217 360.802C334.138 398.337 291.163 431.941 239.989 444.299C188.816 456.656 137.613 446.286 98.5955 408.697L98.6 408.682Z" stroke="white" stroke-opacity="0.24" stroke-width="7" stroke-miterlimit="10"/>
<path opacity="0.88" d="M90.3479 414.503C54.0347 379.707 21.2561 337.942 2.26664 292.184C-18.3731 242.442 -23.6409 197.685 2.88053 155.146C28.3964 114.232 72.9216 84.9374 127.545 74.7522C182.169 64.5669 239.42 74.9394 288.49 101.662C338.678 128.785 373.15 168.535 390.301 214.308C409.779 266.291 402.68 317.484 375.957 361.019C350.289 401.846 302.49 443.746 246.155 460.194C189.819 476.642 132.566 466.262 90.3406 414.504L90.3479 414.503Z" stroke="white" stroke-opacity="0.24" stroke-width="6" stroke-miterlimit="10"/>
<path opacity="0.81" d="M82.0983 420.327C45.5295 379.843 9.29053 335.435 -14.5719 288.799C-41.4995 236.155 -54.5103 190.656 -26.9952 143.95C-0.939159 99.7262 46.7462 68.4183 105.686 57.265C164.618 46.113 227.919 56.4947 283.616 84.8761C341 113.842 379.855 155.218 400.88 201.892C426.111 257.903 420.542 313.073 392.703 361.253C366.453 405.369 313.83 455.565 252.325 476.105C190.827 496.643 127.525 486.262 82.0911 420.328L82.0983 420.327Z" stroke="white" stroke-opacity="0.24" stroke-width="5" stroke-miterlimit="10"/>
<path opacity="0.75" d="M73.8469 426.147C37.0223 379.976 -2.82738 332.96 -31.4051 285.409C-64.7724 229.892 -85.3486 183.639 -56.8583 132.75C-30.2463 85.2193 20.582 51.8871 83.8313 39.774C147.072 27.6553 216.424 38.0529 278.754 68.0782C343.327 98.896 386.743 141.851 411.464 189.464C442.621 249.472 438.406 308.644 409.458 361.468C382.619 408.875 325.173 467.367 258.505 491.997C191.839 516.634 122.487 506.237 73.8455 426.14L73.8469 426.147Z" stroke="white" stroke-opacity="0.24" stroke-width="4" stroke-miterlimit="10"/>
<path opacity="0.69" d="M65.5886 431.967C28.517 380.114 -15.0479 330.53 -48.2452 282.018C-88.1598 223.69 -116.185 176.627 -86.7342 121.557C-59.5562 70.7324 -5.59359 35.3702 61.9644 22.2903C129.515 9.21178 204.916 19.6117 273.873 51.2959C345.636 83.9653 393.731 128.449 422.036 177.052C459.265 240.994 456.267 304.228 426.196 361.706C398.768 412.404 336.497 479.184 264.668 507.912C192.839 536.639 117.439 526.24 65.5886 431.967Z" stroke="white" stroke-opacity="0.24" stroke-width="3" stroke-miterlimit="10"/>
<path opacity="0.62" d="M57.3378 437.786C20.0104 380.246 -27.3397 328.155 -65.085 278.628C-111.64 217.548 -147.006 169.619 -116.604 110.356C-88.8442 56.2417 -31.763 18.8451 40.1036 4.79854C111.963 -9.24676 193.414 1.16919 268.997 34.4986C347.948 69.0127 400.819 114.987 432.606 164.625C476.028 232.43 474.119 299.806 442.937 361.921C414.921 415.91 347.834 490.985 270.835 523.804C193.843 556.623 112.386 546.215 57.335 437.772L57.3378 437.786Z" stroke="white" stroke-opacity="0.24" stroke-width="2" stroke-miterlimit="10"/>
<path opacity="0.56" d="M49.087 443.612C11.504 380.384 -39.6751 325.832 -81.9162 275.251C-135.174 211.48 -177.81 162.623 -146.472 99.1694C-118.122 41.7709 -57.9324 2.32746 18.2442 -12.6789C94.4135 -27.6841 181.913 -17.2659 264.131 17.7212C350.272 54.0869 407.967 101.493 443.194 152.224C492.907 223.825 491.995 295.401 459.692 362.171C431.086 419.45 359.175 502.821 277.016 539.738C194.856 576.655 107.355 566.23 49.0897 443.626L49.087 443.612Z" stroke="white" stroke-opacity="0.24" stroke-width="2" stroke-miterlimit="10"/>
<path opacity="0.5" d="M40.8364 449.429C3.00499 380.513 -52.0384 323.547 -98.7485 271.857C-158.758 205.455 -208.606 155.624 -176.342 87.9669C-147.401 27.2843 -84.1016 -14.1991 -3.61641 -30.1723C76.8615 -46.1441 170.418 -35.718 259.255 0.922407C352.586 39.1397 415.156 87.9324 453.764 139.796C509.844 215.121 509.848 290.978 476.433 362.385C447.246 422.954 370.504 514.622 283.182 555.629C195.86 596.636 102.311 586.209 40.8364 449.429Z" stroke="white" stroke-opacity="0.24" stroke-miterlimit="10"/>
<g filter="url(#filter0_f_44_24)">
<ellipse cx="197.5" cy="240" rx="187.5" ry="187" fill="#67DBBC" fill-opacity="0.34"/>
</g>
<defs>
<filter id="filter0_f_44_24" x="-272.6" y="-229.6" width="940.2" height="939.2" filterUnits="userSpaceOnUse" color-interpolation-filters="sRGB">
<feFlood flood-opacity="0" result="BackgroundImageFix"/>
<feBlend mode="normal" in="SourceGraphic" in2="BackgroundImageFix" result="shape"/>
<feGaussianBlur stdDeviation="141.3" result="effect1_foregroundBlur_44_24"/>
</filter>
</defs>
</svg>
